<svg width="19" height="19" viewBox="0 0 19 19" fill="none" xmlns="http://www.w3.org/2000/svg">
<g clip-path="url(#clip0_14_45)">
<path d="M9.50004 17.4167C13.8723 17.4167 17.4167 13.8722 17.4167 9.49999C17.4167 5.12774 13.8723 1.58333 9.50004 1.58333C5.12779 1.58333 1.58337 5.12774 1.58337 9.49999C1.58337 13.8722 5.12779 17.4167 9.50004 17.4167Z" stroke="white" stroke-width="2" stroke-linecap="round" stroke-linejoin="round"/>
<path d="M9.50004 12.6667C11.2489 12.6667 12.6667 11.2489 12.6667 9.49999C12.6667 7.75109 11.2489 6.33333 9.50004 6.33333C7.75114 6.33333 6.33337 7.75109 6.33337 9.49999C6.33337 11.2489 7.75114 12.6667 9.50004 12.6667Z" stroke="white" stroke-width="2" stroke-linecap="round" stroke-linejoin="round"/>
<path d="M16.7596 6.33333H9.5" stroke="white" stroke-width="2" stroke-linecap="round" stroke-linejoin="round"/>
<path d="M3.12708 4.7975L6.76083 11.0833" stroke="white" stroke-width="2" stroke-linecap="round" stroke-linejoin="round"/>
<path d="M8.61328 17.3692L12.2391 11.0833" stroke="white" stroke-width="2" stroke-linecap="round" stroke-linejoin="round"/>
</g>
<defs>
<clipPath id="clip0_14_45">
<rect width="19" height="19" fill="white"/>
</clipPath>
</defs>
</svg>
