<svg width="9" height="13" viewBox="0 0 9 13" fill="none" xmlns="http://www.w3.org/2000/svg">
<g clip-path="url(#clip0_53_96)">
<path d="M8.78574 7.4006C8.76822 7.35622 8.74738 7.31297 8.72337 7.27114L8.72637 7.2771C8.63882 7.09239 7.93479 5.86389 7.81726 5.69652L4.5484 -0.000732422L1.19619 5.83627C1.08225 6.00418 0.457381 7.09294 0.371027 7.2771L0.336846 7.34535C0.113899 7.83616 0.000193234 8.36184 0.00222399 8.89235C0.00222399 9.98157 0.481258 11.0262 1.33394 11.7964C2.18663 12.5666 3.34312 12.9993 4.549 12.9993C5.75488 12.9993 6.91137 12.5666 7.76406 11.7964C8.61674 11.0262 9.09577 9.98157 9.09577 8.89235V8.8891L9.09637 8.83439C9.09637 8.3171 8.98244 7.82364 8.77555 7.37406L8.78574 7.39952V7.4006ZM4.5508 11.9262C3.96916 11.9263 3.39751 11.7896 2.89213 11.5296C2.38675 11.2695 1.96507 10.895 1.6686 10.443C1.37213 9.99101 1.21109 9.47706 1.20133 8.95175C1.19158 8.42645 1.33344 7.90791 1.61296 7.44718L1.60397 7.46289C1.56004 7.67382 1.53796 7.88798 1.538 8.1026V8.10314C1.53864 9.06491 1.9619 9.98711 2.71481 10.6672C3.46771 11.3473 4.48869 11.7296 5.55346 11.7301C5.62123 11.7301 5.69379 11.7301 5.76095 11.7269C5.37768 11.8599 4.97039 11.9275 4.55979 11.9262H4.546H4.5466H4.5508Z" fill="black"/>
</g>
<defs>
<clipPath id="clip0_53_96">
<rect width="9" height="13" fill="white"/>
</clipPath>
</defs>
</svg>
