<svg width="20" height="15" viewBox="0 0 20 15" fill="none" xmlns="http://www.w3.org/2000/svg">
<path d="M17.2 4H2.8C1.80589 4 1 4.63959 1 5.42857V12.5714C1 13.3604 1.80589 14 2.8 14H17.2C18.1941 14 19 13.3604 19 12.5714V5.42857C19 4.63959 18.1941 4 17.2 4Z" stroke="white" stroke-width="2" stroke-linecap="round" stroke-linejoin="round"/>
<path d="M14 14V2.44444C14 2.06135 13.7893 1.69395 13.4142 1.42307C13.0391 1.15218 12.5304 1 12 1H8C7.46957 1 6.96086 1.15218 6.58579 1.42307C6.21071 1.69395 6 2.06135 6 2.44444V14" stroke="white" stroke-width="2" stroke-linecap="round" stroke-linejoin="round"/>
</svg>
