<svg width="10" height="15" viewBox="0 0 10 15" fill="none" xmlns="http://www.w3.org/2000/svg">
<g clip-path="url(#clip0_14_40)">
<path d="M9.15685 8.53937C9.13858 8.48817 9.11686 8.43826 9.09184 8.39L9.09497 8.39688C9.00372 8.18375 8.26997 6.76625 8.14747 6.57312L4.74059 -0.00062561L1.24684 6.73437C1.12809 6.92812 0.476844 8.18437 0.386844 8.39688L0.351219 8.47562C0.118859 9.04194 0.00035276 9.64849 0.00246926 10.2606C0.00246926 11.5174 0.501729 12.7227 1.39042 13.6114C2.27911 14.5001 3.48442 14.9994 4.74122 14.9994C5.99801 14.9994 7.20333 14.5001 8.09202 13.6114C8.98071 12.7227 9.47997 11.5174 9.47997 10.2606V10.2569L9.48059 10.1937C9.48059 9.59687 9.36184 9.0275 9.14622 8.50875L9.15685 8.53813V8.53937ZM4.74309 13.7612C4.13689 13.7614 3.54111 13.6036 3.01439 13.3036C2.48768 13.0035 2.04819 12.5714 1.7392 12.0498C1.43021 11.5283 1.26237 10.9353 1.25221 10.3292C1.24204 9.72305 1.3899 9.12474 1.68122 8.59312L1.67184 8.61125C1.62606 8.85462 1.60305 9.10173 1.60309 9.34937V9.35C1.60376 10.4597 2.04489 11.5238 2.82958 12.3085C3.61428 13.0932 4.67837 13.5343 5.78809 13.535C5.85872 13.535 5.93434 13.535 6.00434 13.5312C5.60489 13.6848 5.1804 13.7627 4.75247 13.7612H4.73809H4.73872H4.74309Z" fill="white"/>
</g>
<defs>
<clipPath id="clip0_14_40">
<rect width="9.38" height="15" fill="white"/>
</clipPath>
</defs>
</svg>
