<svg width="8" height="9" viewBox="0 0 8 9" fill="none" xmlns="http://www.w3.org/2000/svg">
<path d="M4 0V2.25C4 2.50574 4.12643 2.75101 4.35147 2.93185C4.57652 3.11269 4.88174 3.21429 5.2 3.21429H8V8.03571C8 8.29146 7.87357 8.53673 7.64853 8.71757C7.42348 8.89841 7.11826 9 6.8 9H1.2C0.88174 9 0.576516 8.89841 0.351472 8.71757C0.126428 8.53673 0 8.29146 0 8.03571V0.964286C0 0.708541 0.126428 0.463271 0.351472 0.282433C0.576516 0.101594 0.88174 0 1.2 0H4ZM4.8 0.160714V2.25C4.8 2.33525 4.84214 2.417 4.91716 2.47728C4.99217 2.53756 5.09391 2.57143 5.2 2.57143H7.8L4.8 0.160714Z" fill="white"/>
</svg>
