<svg width="16" height="15" viewBox="0 0 16 15" fill="none" xmlns="http://www.w3.org/2000/svg">
<path d="M8 0C3.58172 0 0 3.35786 0 7.5C0 11.6421 3.58172 15 8 15C12.4183 15 16 11.6421 16 7.5C16 3.35786 12.4183 0 8 0ZM7.94239 3.43322C9.02273 3.43805 10.0102 4.08392 10.4297 4.98505C10.5732 5.29891 10.6494 5.62134 10.6494 5.97108V6.86281H11.96L12 10.5H4.04004V6.86279H5.24512C5.2342 6.23271 5.22037 5.51191 5.45605 4.98502C5.91432 4.03616 6.86203 3.4284 7.94239 3.43322ZM7.88379 4.93103C7.28537 4.94283 6.89072 5.36944 6.83299 5.97105V6.86279H9.06152V5.96191C9.03404 5.3914 8.57347 4.94674 7.94236 4.93103C7.92284 4.93059 7.90331 4.93059 7.88379 4.93103Z" fill="black"/>
</svg>
