<svg width="10" height="15" viewBox="0 0 10 15" fill="none" xmlns="http://www.w3.org/2000/svg">
<path d="M5 0.104675V3.57934C5 3.97429 5.15804 4.35306 5.43934 4.63232C5.72064 4.91159 6.10218 5.06848 6.5 5.06848H10V12.5142C10 12.9091 9.84196 13.2879 9.56066 13.5672C9.27936 13.8464 8.89782 14.0033 8.5 14.0033H1.5C1.10218 14.0033 0.720644 13.8464 0.43934 13.5672C0.158035 13.2879 0 12.9091 0 12.5142V1.59382C0 1.19887 0.158035 0.820104 0.43934 0.540835C0.720644 0.261567 1.10218 0.104675 1.5 0.104675H5ZM6 0.352866V3.57934C6 3.71099 6.05268 3.83725 6.14645 3.93034C6.24021 4.02343 6.36739 4.07572 6.5 4.07572H9.75L6 0.352866Z" fill="white"/>
</svg>
