<svg width="9" height="12" viewBox="0 0 9 12" fill="none" xmlns="http://www.w3.org/2000/svg">
<path d="M4.5 0V3C4.5 3.34099 4.64223 3.66802 4.89541 3.90914C5.14858 4.15026 5.49196 4.28571 5.85 4.28571H9V10.7143C9 11.0553 8.85777 11.3823 8.60459 11.6234C8.35142 11.8645 8.00804 12 7.65 12H1.35C0.991958 12 0.64858 11.8645 0.395406 11.6234C0.142232 11.3823 0 11.0553 0 10.7143V1.28571C0 0.944722 0.142232 0.617695 0.395406 0.376577C0.64858 0.135459 0.991958 0 1.35 0H4.5ZM5.4 0.214286V3C5.4 3.11366 5.44741 3.22267 5.5318 3.30305C5.61619 3.38342 5.73065 3.42857 5.85 3.42857H8.775L5.4 0.214286Z" fill="black"/>
</svg>
