<svg width="15" height="15" viewBox="0 0 15 15" fill="none" xmlns="http://www.w3.org/2000/svg">
<g clip-path="url(#clip0_14_36)">
<rect width="15" height="15" fill="black"/>
<path d="M14.9704 2.85609C14.409 3.10289 13.8144 3.26588 13.2056 3.33984C13.8473 2.95467 14.3278 2.35 14.5579 1.63781C13.9509 1.98984 13.2903 2.23988 12.6023 2.37797C12.1397 1.88365 11.5268 1.55584 10.8588 1.44539C10.1909 1.33494 9.50513 1.44803 8.90799 1.76711C8.31086 2.08619 7.83572 2.59342 7.5563 3.21012C7.27688 3.82681 7.2088 4.51848 7.36262 5.17781C4.80652 5.05828 2.54059 3.83015 1.02512 1.97484C0.749246 2.44401 0.604965 2.97887 0.607461 3.52312C0.607085 4.02907 0.731654 4.52729 0.970105 4.97353C1.20856 5.41976 1.55351 5.80021 1.97434 6.08109C1.48666 6.06635 1.00961 5.93503 0.583086 5.69812V5.73515C0.582937 6.44532 0.828341 7.1337 1.2777 7.68361C1.72707 8.23353 2.35275 8.61116 3.04871 8.7525C2.78508 8.82294 2.51346 8.85902 2.24059 8.85984C2.04324 8.85984 1.8548 8.84062 1.66684 8.80594C1.8649 9.41706 2.24856 9.95122 2.76442 10.3341C3.28028 10.7169 3.90267 10.9295 4.54496 10.942C3.45672 11.7943 2.11392 12.2566 0.73168 12.255C0.486854 12.256 0.242193 12.2422 -0.000976562 12.2137C1.40907 13.1172 3.04888 13.5969 4.72355 13.5956C10.38 13.5956 13.4709 8.91047 13.4709 4.85297C13.4709 4.72359 13.4709 4.59187 13.4611 4.45969C14.0657 4.02635 14.5868 3.48701 14.999 2.86781L14.9704 2.85609Z" fill="white"/>
</g>
<defs>
<clipPath id="clip0_14_36">
<rect width="15" height="15" fill="white"/>
</clipPath>
</defs>
</svg>
