<svg width="27" height="18" viewBox="0 0 27 18" fill="none" xmlns="http://www.w3.org/2000/svg">
<path d="M25.75 1H1.25C1.1125 1 1 1.08182 1 1.18182V2.63636C1 2.73636 1.1125 2.81818 1.25 2.81818H25.75C25.8875 2.81818 26 2.73636 26 2.63636V1.18182C26 1.08182 25.8875 1 25.75 1ZM25.75 15.1818H1.25C1.1125 15.1818 1 15.2636 1 15.3636V16.8182C1 16.9182 1.1125 17 1.25 17H25.75C25.8875 17 26 16.9182 26 16.8182V15.3636C26 15.2636 25.8875 15.1818 25.75 15.1818ZM25.75 8.09091H1.25C1.1125 8.09091 1 8.17273 1 8.27273V9.72727C1 9.82727 1.1125 9.90909 1.25 9.90909H25.75C25.8875 9.90909 26 9.82727 26 9.72727V8.27273C26 8.17273 25.8875 8.09091 25.75 8.09091Z" fill="white" stroke="white"/>
</svg>
