<svg width="15" height="15" viewBox="0 0 15 15" fill="none" xmlns="http://www.w3.org/2000/svg">
<rect width="15" height="15" rx="7.5" fill="#D9D9D9"/>
<path fill-rule="evenodd" clip-rule="evenodd" d="M15 7.44571C15 11.5576 11.6419 14.8914 7.5 14.8914C3.35813 14.8914 0 11.5576 0 7.44571C0 3.33382 3.35813 0 7.5 0C11.6419 0 15 3.33382 15 7.44571ZM7.76875 5.4968C7.03938 5.79773 5.58125 6.42131 3.395 7.36691C3.04 7.50714 2.85375 7.64427 2.83688 7.77829C2.80813 8.00538 3.09437 8.09473 3.48312 8.21572C3.53625 8.23248 3.59125 8.24923 3.6475 8.26784C4.03062 8.39132 4.54563 8.53589 4.81313 8.54147C5.05625 8.54644 5.3275 8.44716 5.62688 8.24365C7.66938 6.87425 8.72375 6.18242 8.79 6.16753C8.83688 6.15698 8.90187 6.14333 8.94562 6.18242C8.98937 6.22089 8.985 6.29411 8.98063 6.31396C8.95188 6.43372 7.83062 7.46929 7.24937 8.00538C7.06812 8.17229 6.94 8.2908 6.91375 8.3181C6.855 8.37829 6.795 8.43599 6.7375 8.49122C6.38125 8.83124 6.115 9.08687 6.7525 9.50383C7.05875 9.70425 7.30375 9.86991 7.54812 10.035C7.815 10.2155 8.08125 10.3955 8.42625 10.6201C8.51375 10.6772 8.5975 10.7361 8.67938 10.7938C8.99 11.0141 9.26938 11.2114 9.61438 11.1804C9.81438 11.1617 10.0219 10.975 10.1269 10.4172C10.375 9.09804 10.8637 6.24137 10.9769 5.06371C10.9838 4.96593 10.9796 4.86769 10.9644 4.77084C10.9553 4.69262 10.9169 4.62064 10.8569 4.56919C10.7675 4.49659 10.6288 4.48108 10.5663 4.48232C10.2844 4.48728 9.85188 4.63682 7.76875 5.4968V5.4968Z" fill="black"/>
</svg>
