<svg width="18" height="14" viewBox="0 0 18 14" fill="none" xmlns="http://www.w3.org/2000/svg">
<path d="M15.4 3.76929H2.6C1.71634 3.76929 1 4.35968 1 5.08797V11.6814C1 12.4097 1.71634 13.0001 2.6 13.0001H15.4C16.2837 13.0001 17 12.4097 17 11.6814V5.08797C17 4.35968 16.2837 3.76929 15.4 3.76929Z" stroke="black" stroke-width="2" stroke-linecap="round" stroke-linejoin="round"/>
<path d="M12.5556 13V2.33333C12.5556 1.97971 12.3683 1.64057 12.0349 1.39052C11.7015 1.14048 11.2493 1 10.7778 1H7.22224C6.75074 1 6.29856 1.14048 5.96516 1.39052C5.63176 1.64057 5.44446 1.97971 5.44446 2.33333V13" stroke="black" stroke-width="2" stroke-linecap="round" stroke-linejoin="round"/>
</svg>
