<svg width="15" height="15" viewBox="0 0 15 15" fill="none" xmlns="http://www.w3.org/2000/svg">
<rect width="15" height="15" rx="7.5" fill="black"/>
<path d="M11.9828 4.83364C11.646 4.97535 11.2892 5.06893 10.9239 5.1114C11.309 4.89024 11.5972 4.54306 11.7353 4.13414C11.3711 4.33627 10.9748 4.47983 10.562 4.55912C10.2844 4.27529 9.91668 4.08707 9.5159 4.02365C9.11511 3.96024 8.70366 4.02517 8.34538 4.20838C7.9871 4.39159 7.70202 4.68283 7.53437 5.03691C7.36671 5.391 7.32587 5.78814 7.41816 6.16671C5.8845 6.09808 4.52494 5.39292 3.61566 4.32765C3.45013 4.59704 3.36356 4.90414 3.36506 5.21664C3.36484 5.50714 3.43958 5.7932 3.58265 6.04942C3.72572 6.30564 3.93269 6.52408 4.18519 6.68535C3.89258 6.67689 3.60635 6.60149 3.35044 6.46546V6.48673C3.35035 6.89448 3.49759 7.28973 3.76721 7.60548C4.03683 7.92123 4.41224 8.13805 4.82981 8.2192C4.67164 8.25965 4.50866 8.28036 4.34494 8.28084C4.22653 8.28084 4.11347 8.2698 4.00069 8.24989C4.11952 8.60078 4.34972 8.90748 4.65924 9.12731C4.96875 9.34714 5.34219 9.46916 5.72756 9.47638C5.07462 9.96571 4.26894 10.2312 3.43959 10.2302C3.2927 10.2308 3.1459 10.2229 3 10.2066C3.84603 10.7253 4.82992 11.0007 5.83472 11C9.22856 11 11.0831 8.30991 11.0831 5.9802C11.0831 5.90591 11.0831 5.83028 11.0772 5.75438C11.44 5.50557 11.7526 5.1959 12 4.84037L11.9828 4.83364Z" fill="white"/>
</svg>
