<svg width="40" height="40" viewBox="0 0 40 40" fill="none" xmlns="http://www.w3.org/2000/svg">
<rect width="40" height="40" rx="20" fill="white"/>
<path fill-rule="evenodd" clip-rule="evenodd" d="M27.54 8C28.896 8 30 9.104 30 10.472V32L27.42 29.72L25.968 28.376L24.432 26.948L25.068 29.168H11.46C10.104 29.168 9 28.064 9 26.696V10.472C9 9.104 10.104 8 11.46 8L27.54 8ZM22.908 23.672C25.56 23.588 26.58 21.848 26.58 21.848C26.58 17.984 24.852 14.852 24.852 14.852C23.124 13.556 21.48 13.592 21.48 13.592L21.312 13.784C23.352 14.408 24.3 15.308 24.3 15.308C23.052 14.624 21.828 14.288 20.688 14.156C19.824 14.06 18.996 14.084 18.264 14.18L18.06 14.204C17.64 14.24 16.62 14.396 15.336 14.96C14.892 15.164 14.628 15.308 14.628 15.308C14.628 15.308 15.624 14.36 17.784 13.736L17.664 13.592C17.664 13.592 16.02 13.556 14.292 14.852C14.292 14.852 12.564 17.984 12.564 21.848C12.564 21.848 13.572 23.588 16.224 23.672C16.224 23.672 16.668 23.132 17.028 22.676C15.504 22.22 14.928 21.26 14.928 21.26L15.264 21.464L15.312 21.5L15.359 21.527L15.373 21.533L15.42 21.56C15.72 21.728 16.02 21.86 16.296 21.968C16.788 22.16 17.376 22.352 18.06 22.484C18.96 22.652 20.016 22.712 21.168 22.496C21.732 22.4 22.308 22.232 22.908 21.98C23.328 21.824 23.796 21.596 24.288 21.272C24.288 21.272 23.688 22.256 22.116 22.7C22.476 23.156 22.908 23.672 22.908 23.672ZM17.328 18.068C16.644 18.068 16.104 18.668 16.104 19.4C16.104 20.132 16.656 20.732 17.328 20.732C18.012 20.732 18.552 20.132 18.552 19.4C18.564 18.668 18.012 18.068 17.328 18.068ZM21.708 18.068C21.024 18.068 20.484 18.668 20.484 19.4C20.484 20.132 21.036 20.732 21.708 20.732C22.392 20.732 22.932 20.132 22.932 19.4C22.932 18.668 22.392 18.068 21.708 18.068Z" fill="black"/>
</svg>
