<svg width="40" height="40" viewBox="0 0 40 40" fill="none" xmlns="http://www.w3.org/2000/svg">
<rect width="40" height="40" rx="20" fill="white"/>
<g clip-path="url(#clip0_107_31)">
<path d="M27.7042 8H6.82519C6.10934 8 5.52942 8.56829 5.52942 9.26979V29.7312C5.52942 30.4317 6.10934 31 6.82519 31H18.0666V22.0933H15.0076V18.6222H18.0666V16.0625C18.0666 13.0916 19.9179 11.474 22.6229 11.474C23.9186 11.474 25.0315 11.5688 25.3562 11.611V14.716L23.4805 14.717C22.0097 14.717 21.7251 15.4022 21.7251 16.4065V18.6231H25.233L24.7763 22.0942H21.7251V31H27.7062C28.4201 31 29 30.4317 29 29.7302V9.26979C29 8.56829 28.4201 8 27.7042 8Z" fill="black"/>
</g>
<defs>
<clipPath id="clip0_107_31">
<rect x="10" y="8" width="19" height="23" rx="5" fill="white"/>
</clipPath>
</defs>
</svg>
