<svg width="40" height="40" viewBox="0 0 40 40" fill="none" xmlns="http://www.w3.org/2000/svg">
<rect width="40" height="40" rx="20" fill="white"/>
<path d="M32 19.779C32 18.32 30.808 17.134 29.343 17.134C28.628 17.134 27.98 17.42 27.503 17.88C25.693 16.689 23.244 15.931 20.532 15.834L22.015 11.165L26.031 12.106L26.025 12.164C26.025 13.357 27 14.327 28.199 14.327C29.397 14.327 30.371 13.357 30.371 12.164C30.371 10.971 29.396 10 28.199 10C27.279 10 26.495 10.574 26.178 11.379L21.849 10.364C21.66 10.318 21.468 10.427 21.409 10.613L19.755 15.82C16.917 15.854 14.346 16.618 12.455 17.845C11.981 17.407 11.352 17.133 10.656 17.133C9.191 17.133 8 18.32 8 19.779C8 20.749 8.533 21.59 9.317 22.05C9.265 22.332 9.231 22.617 9.231 22.907C9.231 26.818 14.039 30 19.95 30C25.861 30 30.67 26.818 30.67 22.907C30.67 22.633 30.641 22.363 30.595 22.097C31.427 21.65 32 20.785 32 19.779ZM14.776 21.595C14.776 20.727 15.486 20.02 16.358 20.02C17.23 20.02 17.939 20.727 17.939 21.595C17.939 22.463 17.23 23.169 16.358 23.169C15.486 23.169 14.776 22.463 14.776 21.595ZM23.837 26.264C23.04 27.057 21.789 27.443 20.013 27.443L20 27.44L19.987 27.443C18.21 27.443 16.959 27.057 16.163 26.264C16.018 26.12 16.018 25.885 16.163 25.741C16.308 25.596 16.544 25.596 16.689 25.741C17.339 26.388 18.418 26.702 19.987 26.702L20 26.705L20.013 26.702C21.582 26.702 22.661 26.387 23.311 25.74C23.456 25.595 23.692 25.596 23.837 25.74C23.982 25.885 23.982 26.119 23.837 26.264ZM23.648 23.169C22.776 23.169 22.067 22.463 22.067 21.595C22.067 20.727 22.776 20.02 23.648 20.02C24.52 20.02 25.229 20.727 25.229 21.595C25.229 22.463 24.52 23.169 23.648 23.169Z" fill="black"/>
</svg>
