<svg width="40" height="40" viewBox="0 0 40 40" fill="none" xmlns="http://www.w3.org/2000/svg">
<rect width="40" height="40" rx="20" fill="white"/>
<g clip-path="url(#clip0_107_27)">
<path fill-rule="evenodd" clip-rule="evenodd" d="M20 8C13.374 8 8 13.372 8 20C8 26.627 13.374 32 20 32C26.627 32 32 26.627 32 20C32 13.372 26.627 8 20 8ZM23.224 25.871C23.412 26.004 23.654 26.037 23.87 25.956C24.085 25.874 24.244 25.689 24.292 25.465C24.799 23.083 26.029 17.053 26.49 14.887C26.525 14.723 26.467 14.553 26.339 14.444C26.21 14.335 26.032 14.304 25.874 14.362C23.428 15.268 15.895 18.094 12.816 19.233C12.621 19.306 12.494 19.493 12.5 19.7C12.507 19.906 12.646 20.085 12.846 20.145C14.227 20.558 16.039 21.133 16.039 21.133C16.039 21.133 16.886 23.691 17.327 24.991C17.383 25.155 17.511 25.283 17.679 25.327C17.848 25.371 18.027 25.325 18.153 25.206C18.862 24.537 19.958 23.502 19.958 23.502C19.958 23.502 22.042 25.029 23.224 25.871ZM16.801 20.809L17.781 24.04L17.999 21.994C17.999 21.994 21.782 18.581 23.94 16.636C24.003 16.579 24.011 16.483 23.959 16.416C23.907 16.349 23.811 16.333 23.74 16.379C21.24 17.975 16.801 20.809 16.801 20.809Z" fill="black"/>
</g>
<defs>
<clipPath id="clip0_107_27">
<rect width="24" height="24" fill="white" transform="translate(8 8)"/>
</clipPath>
</defs>
</svg>
