<svg width="40" height="40" viewBox="0 0 40 40" fill="none" xmlns="http://www.w3.org/2000/svg">
<rect width="40" height="40" rx="20" fill="white"/>
<path d="M32 12.309C31.117 12.701 30.168 12.965 29.172 13.084C30.189 12.475 30.97 11.51 31.337 10.36C30.386 10.924 29.332 11.334 28.21 11.555C27.313 10.598 26.032 10 24.616 10C21.437 10 19.101 12.966 19.819 16.045C15.728 15.84 12.1 13.88 9.671 10.901C8.381 13.114 9.002 16.009 11.194 17.475C10.388 17.449 9.628 17.228 8.965 16.859C8.911 19.14 10.546 21.274 12.914 21.749C12.221 21.937 11.462 21.981 10.69 21.833C11.316 23.789 13.134 25.212 15.29 25.252C13.22 26.875 10.612 27.6 8 27.292C10.179 28.689 12.768 29.504 15.548 29.504C24.69 29.504 29.855 21.783 29.543 14.858C30.505 14.163 31.34 13.296 32 12.309Z" fill="black"/>
</svg>
