<svg width="40" height="40" viewBox="0 0 40 40" fill="none" xmlns="http://www.w3.org/2000/svg">
<rect width="40" height="40" rx="20" fill="white"/>
<g clip-path="url(#clip0_107_29)">
<path fill-rule="evenodd" clip-rule="evenodd" d="M20.02 8C26.634 8.011 32 13.383 32 20C32 26.623 26.624 32 20 32C13.377 32 8 26.623 8 20C8 13.383 13.367 8.011 19.981 8H20.02ZM23.714 24H16.287C16.926 28.266 18.529 31 20 31C21.472 31 23.075 28.266 23.714 24ZM30.249 24H24.726C24.3 26.985 23.405 29.402 22.241 30.771C25.91 30.011 28.912 27.421 30.249 24ZM15.275 24H9.751C11.089 27.421 14.091 30.011 17.76 30.771C16.596 29.402 15.701 26.985 15.275 24ZM15.152 17H9.416C9.085 18.166 8.675 20.389 9.416 23H15.152C14.964 21.186 14.937 19.075 15.152 17ZM23.843 17H16.158C15.963 18.8 15.933 20.927 16.158 23H23.843C24.039 21.189 24.067 19.07 23.843 17ZM30.585 17H24.849C24.911 17.592 25.157 20.019 24.849 23H30.585C31.326 20.388 30.916 18.165 30.585 17ZM17.76 9.229C14.091 9.989 11.089 12.579 9.751 16H15.275C15.701 13.015 16.596 10.597 17.76 9.229ZM23.714 16C23.075 11.734 21.472 9 20 9C18.529 9 16.926 11.734 16.287 16H23.714ZM22.241 9.229C23.405 10.597 24.3 13.015 24.726 16H30.249C28.912 12.579 25.91 9.989 22.241 9.229Z" fill="black"/>
</g>
<defs>
<clipPath id="clip0_107_29">
<rect width="24" height="24" fill="white" transform="translate(8 8)"/>
</clipPath>
</defs>
</svg>
